<svg width="144" height="20" viewBox="0 0 144 20" fill="none" xmlns="http://www.w3.org/2000/svg">
<path d="M14.4627 0.677124H13.1464C13.0983 0.677124 13.058 0.71594 13.058 0.762149V8.80442C13.058 8.84323 13.0253 8.8765 12.983 8.8765H1.59501C1.55466 8.8765 1.52007 8.84508 1.52007 8.80442V0.762149C1.52007 0.71594 1.47971 0.677124 1.43167 0.677124H0.0883983C0.0403557 0.677124 0 0.71594 0 0.762149V19.915C0 19.9612 0.0403557 20 0.0883983 20H1.43359C1.48163 20 1.52199 19.9612 1.52199 19.915V10.4107C1.52199 10.3718 1.55466 10.3386 1.59693 10.3386H12.9849C13.0253 10.3386 13.0599 10.37 13.0599 10.4107V19.915C13.0599 19.9612 13.1002 20 13.1483 20H14.4647C14.5127 20 14.5531 19.9612 14.5531 19.915V0.762149C14.5531 0.71594 14.5127 0.677124 14.4647 0.677124H14.4627Z" fill="#0F0F10"/>
<path d="M89.6282 7.12238C88.5271 6.50503 87.3279 6.19635 86.027 6.19635C84.1149 6.19635 82.4218 6.86176 80.946 8.19074L80.9344 8.20183C79.5489 9.62508 78.8552 11.2553 78.8552 13.0963C78.8552 14.3477 79.1742 15.5011 79.8179 16.5602C80.4598 17.6193 81.3284 18.4566 82.4295 19.0721C83.5287 19.6895 84.7298 19.9981 86.0308 19.9981C87.9448 19.9981 89.6398 19.3327 91.1195 17.9982L91.131 17.9871C92.5127 16.5657 93.2045 14.9373 93.2045 13.1C93.2045 11.8487 92.8836 10.6953 92.2417 9.63617C91.5999 8.57705 90.7313 7.74159 89.6301 7.12423L89.6282 7.12238ZM90.9235 15.8153C90.4142 16.6526 89.732 17.3143 88.8711 17.8023C88.0102 18.2902 87.0435 18.5324 86.0308 18.5324C85.0181 18.5324 84.0745 18.2884 83.2059 17.8023C82.3354 17.3143 81.6474 16.6526 81.1401 15.8153C80.6327 14.9798 80.381 14.0907 80.381 13.0982C80.381 12.1056 80.6347 11.1943 81.1401 10.3663C81.6474 9.53821 82.3354 8.88019 83.2059 8.39222C84.0745 7.90425 85.0161 7.66211 86.0308 7.66211C87.0455 7.66211 88.0102 7.90609 88.8711 8.39222C89.732 8.88019 90.4161 9.53821 90.9235 10.3663C91.4308 11.1943 91.6844 12.1241 91.6844 13.0982C91.6844 14.0723 91.4308 14.978 90.9235 15.8153Z" fill="#0F0F10"/>
<path d="M140.883 19.8793C142.17 19.8536 143.192 18.8291 143.165 17.5911C143.138 16.3531 142.073 15.3704 140.786 15.3961C139.499 15.4218 138.477 16.4463 138.504 17.6842C138.531 18.9222 139.596 19.905 140.883 19.8793Z" fill="#0F0F10"/>
<path d="M42.7809 7.01153V7.01522C41.8143 6.4718 40.7573 6.20009 39.6101 6.20009C38.6723 6.20009 37.7864 6.38862 36.9562 6.76569C36.1722 7.12243 35.4919 7.59376 34.9211 8.18894C34.8846 8.22776 34.8193 8.20373 34.8193 8.15197V6.2999C34.8193 6.24445 34.7712 6.19824 34.7136 6.19824H33.403C33.3453 6.19824 33.2973 6.24445 33.2973 6.2999V19.8984C33.2973 19.9538 33.3453 20 33.403 20H34.7136C34.7712 20 34.8193 19.9538 34.8193 19.8984V13.3052C34.8193 11.6269 35.0787 10.7656 35.2113 10.4366C35.6552 9.4865 36.3201 8.75639 37.2157 8.25363C37.9517 7.8396 38.7511 7.63258 39.612 7.63258C40.4729 7.63258 41.2724 7.84514 42.0084 8.26842C42.7444 8.6917 43.3324 9.2573 43.7725 9.96522C44.2126 10.6732 44.4336 11.4421 44.4336 12.2701V19.8984C44.4336 19.9538 44.4816 20 44.5393 20H45.821C45.8787 20 45.9267 19.9538 45.9267 19.8984V12.2701C45.9267 11.1648 45.6442 10.1482 45.0793 9.22033C44.5143 8.29245 43.7494 7.5568 42.7847 7.01337L42.7809 7.01153Z" fill="#0F0F10"/>
<path d="M115.304 7.01148V7.01518C114.335 6.47176 113.317 6.20005 112.131 6.20005C110.946 6.20005 109.854 6.49024 108.86 7.06878C107.953 7.59926 107.237 8.2924 106.71 9.1519C106.643 9.26095 106.485 9.26095 106.42 9.1519C105.893 8.2924 105.177 7.59742 104.268 7.06878C103.274 6.48839 102.183 6.20005 100.997 6.20005C100.059 6.20005 99.1751 6.38858 98.343 6.76565C97.5532 7.12423 96.8671 7.60296 96.2945 8.20183C96.2618 8.23511 96.2061 8.21477 96.2061 8.16856V6.29986C96.2061 6.24256 96.158 6.19635 96.0985 6.19635H94.7917C94.7321 6.19635 94.6841 6.24256 94.6841 6.29986V19.8928C94.6841 19.9501 94.7321 19.9963 94.7917 19.9963H96.0985C96.158 19.9963 96.2061 19.9501 96.2061 19.8928V12.405C96.2061 12.405 96.2138 11.5363 96.3579 11.0354C96.3925 10.9337 96.4271 10.8321 96.4655 10.7341C96.9037 9.63432 97.6147 8.80625 98.6024 8.25174C99.3384 7.83771 100.138 7.63069 100.999 7.63069C101.86 7.63069 102.659 7.84325 103.395 8.26653C104.131 8.6898 104.719 9.25541 105.159 9.96333C105.599 10.6713 105.82 11.4402 105.82 12.2683V19.8946C105.82 19.9519 105.868 19.9981 105.928 19.9981H107.206C107.265 19.9981 107.314 19.9519 107.314 19.8946V12.2683C107.314 11.4402 107.535 10.6713 107.975 9.96333C108.415 9.25541 109.003 8.6898 109.739 8.26653C110.475 7.84325 111.274 7.63069 112.135 7.63069C112.996 7.63069 113.795 7.84325 114.531 8.26653C115.267 8.6898 115.852 9.25541 116.282 9.96333C116.713 10.6713 116.928 11.4402 116.928 12.2683V19.8946C116.928 19.9519 116.976 19.9981 117.035 19.9981H118.342C118.402 19.9981 118.45 19.9519 118.45 19.8946V12.2683C118.45 11.1629 118.167 10.1463 117.602 9.21844C117.037 8.29056 116.272 7.5549 115.308 7.01148H115.304Z" fill="#0F0F10"/>
<path d="M30.705 6.19635H29.3598C29.3098 6.19635 29.2714 6.23517 29.2714 6.28138V8.61402C29.2714 8.69165 29.1714 8.72492 29.1195 8.66578C28.4777 7.92458 27.6994 7.33495 26.7885 6.90058C25.8027 6.42925 24.7438 6.19635 23.6177 6.19635C21.7056 6.19635 20.0126 6.86176 18.5367 8.19074L18.5252 8.20183C17.1397 9.62508 16.4459 11.2553 16.4459 13.0963C16.4459 14.3477 16.7668 15.5011 17.4087 16.5602C18.0505 17.6193 18.9192 18.4566 20.0203 19.0721C21.1214 19.6895 22.3206 19.9981 23.6216 19.9981C24.7515 19.9981 25.8065 19.7634 26.7924 19.2939C27.6398 18.891 28.3701 18.3531 28.985 17.6858C29.1772 17.4807 29.2752 17.1942 29.2752 17.793V19.9131C29.2752 19.9612 29.3156 19.9981 29.3636 19.9981H30.7069C30.7568 19.9981 30.7953 19.9593 30.7953 19.9131V6.28322C30.7953 6.23517 30.7549 6.1982 30.7069 6.1982L30.705 6.19635ZM28.5142 15.8171C28.005 16.6544 27.3228 17.3162 26.4618 17.8041C25.6009 18.2921 24.6343 18.5342 23.6216 18.5342C22.6088 18.5342 21.6653 18.2902 20.7947 17.8041C19.9242 17.3162 19.2362 16.6544 18.7289 15.8171C18.2216 14.9817 17.9698 14.0926 17.9698 13.1C17.9698 12.1074 18.2235 11.1962 18.7289 10.3681C19.2362 9.54006 19.9242 8.88203 20.7947 8.39406C21.6653 7.90609 22.5877 7.66396 23.6216 7.66396C24.6554 7.66396 25.6009 7.90794 26.4618 8.39406C27.3228 8.88203 28.0069 9.54006 28.5142 10.3681C29.0215 11.1962 29.2733 12.1259 29.2733 13.1C29.2733 14.0741 29.0196 14.9798 28.5142 15.8171Z" fill="#0F0F10"/>
<path d="M50.0891 5.85443C50.3101 5.63448 50.4196 5.36646 50.4196 5.05409C50.4196 4.7602 50.3082 4.50697 50.0891 4.29441C49.8681 4.08184 49.5952 3.97649 49.2705 3.97649C48.9457 3.97649 48.6709 4.08369 48.4518 4.29441C48.2308 4.50697 48.1213 4.75835 48.1213 5.05409C48.1213 5.36646 48.2308 5.63448 48.4518 5.85443C48.6728 6.07439 48.9457 6.18529 49.2705 6.18529C49.5952 6.18529 49.8681 6.07439 50.0891 5.85443Z" fill="#0F0F10"/>
<path d="M69.2408 0.862003V0.874942L61.4848 8.60114C61.3042 8.77488 61.1216 8.90427 61.6039 8.8747H69.8577H64.106H76.9737C77.0621 8.8747 77.1351 8.94493 77.1351 9.02996V19.8596C77.1351 19.9372 77.0698 20 76.9891 20H75.7861C75.7073 20 75.642 19.9372 75.642 19.8614V10.4347C75.642 10.3719 75.5882 10.3201 75.5228 10.3201H64.1982C64.1464 10.3201 64.1041 10.3608 64.1041 10.4107V19.8374C64.1041 19.8891 64.0772 19.9335 64.0387 19.9631C64.0272 19.9723 64.0176 19.9797 64.0042 19.9853C63.9926 19.989 63.9811 19.9908 63.9696 19.9927C63.9619 19.9927 63.9561 19.9963 63.9484 19.9963C63.9484 19.9963 63.9427 19.9963 63.9407 19.9963H62.755C62.755 19.9963 62.7493 19.9963 62.7474 19.9963H48.6824C48.5959 19.9963 48.5287 19.9243 48.5287 19.8355V10.4624C48.5287 10.383 48.5959 10.3183 48.6786 10.3183H49.872C49.9546 10.3183 50.0218 10.383 50.0218 10.4624V18.4807C50.0218 18.525 50.0603 18.562 50.1064 18.562H62.4937C62.5456 18.562 62.5879 18.5213 62.5879 18.4714V10.4107C62.5879 10.3608 62.5456 10.3201 62.4937 10.3201H58.2025C58.0546 10.3201 57.9777 10.1482 58.0834 10.0466L68.2819 0.00251027C68.2819 0.00251027 68.2953 -0.00303484 68.3011 0.00251027L69.2408 0.862003Z" fill="#0F0F10"/>
<path d="M128.443 6.3313C127.978 6.25182 127.495 6.19452 127.001 6.19821C125.093 6.19821 123.4 6.86178 121.924 8.18706L121.913 8.19815C120.522 9.62325 119.828 11.2554 119.828 13.0982C119.828 14.3495 120.149 15.5029 120.791 16.562C121.432 17.6212 122.301 18.4585 123.402 19.074C124.503 19.6913 125.702 20 127.003 20C128.304 20 129.504 19.6876 130.605 19.061C131.183 18.7339 131.694 18.3457 132.148 17.9003C133.407 16.7672 133.752 15.6305 133.831 15.2885C133.843 15.2349 133.8 15.185 133.745 15.185H132.415C132.373 15.185 132.336 15.2109 132.321 15.2478C132.086 15.8208 131.664 16.3088 131.473 16.5121C130.908 17.0907 130.336 17.5565 129.757 17.9021C129.048 18.3254 128.199 18.5379 127.203 18.5379C125.71 18.5379 124.434 18.1091 123.373 17.2533C122.334 16.416 121.692 15.307 121.452 13.9318C121.444 13.8874 121.48 13.8449 121.528 13.8449H133.973C134.062 13.8449 134.137 13.7802 134.141 13.6989C134.146 13.6157 134.148 13.3754 134.148 13.3754C134.146 13.2719 134.143 13.1721 134.139 13.0723C134.068 11.8653 133.474 7.18155 128.441 6.3313H128.443ZM132.255 12.4365H121.523C121.477 12.4365 121.44 12.3995 121.446 12.3551C121.513 11.699 121.736 11.0169 122.113 10.3108C122.505 9.57519 123.112 8.94859 123.936 8.43474C124.759 7.91905 125.783 7.66028 127.007 7.66028C127.007 7.66028 131.781 7.45511 132.336 12.3551C132.344 12.3977 132.303 12.4365 132.259 12.4365H132.255Z" fill="#0F0F10"/>
</svg>
