<svg width="431" height="311" viewBox="0 0 431 311" fill="none" xmlns="http://www.w3.org/2000/svg">
<path d="M270.352 310.012C290.945 310.012 307.642 293.331 307.642 272.757C307.642 252.184 290.945 235.503 270.352 235.503C249.759 235.503 233.063 252.184 233.063 272.757C233.063 293.331 249.759 310.012 270.352 310.012Z" fill="#A568FF"/>
<path d="M251.593 35.4221C252.387 35.4221 253.127 35.017 253.55 34.33L274.09 1.0919C274.743 0.0350434 276.118 -0.317242 277.193 0.316872L429.031 87.9479C430.018 88.5115 430.441 89.7445 430 90.8014L384.76 199.517C384.319 200.591 383.12 201.155 382.009 200.838L218.271 154.089C216.208 153.508 214.022 153.508 211.941 154.089L48.2031 200.838C47.0747 201.155 45.8934 200.574 45.4526 199.517L0.176443 90.7838C-0.26433 89.7269 0.158812 88.5115 1.14614 87.9303L152.984 0.316872C154.059 -0.317242 155.434 0.0350434 156.087 1.0919L176.627 34.33C177.032 35.017 177.79 35.4221 178.584 35.4221H251.593Z" fill="#30DC86"/>
</svg>
