<svg width="296" height="291" viewBox="0 0 296 291" fill="none" xmlns="http://www.w3.org/2000/svg">
<path d="M162.6 54.1979C163.204 53.7749 163.55 53.0684 163.502 52.3143L161.236 15.7913C161.163 14.6304 162.021 13.6262 163.181 13.5406L326.001 0.00800021C327.056 -0.0847423 328.043 0.638289 328.276 1.68639L352.395 109.448C352.638 110.509 352.029 111.582 351.013 111.93L201.155 163.261C199.272 163.914 197.607 165.08 196.336 166.636L96.8464 289.9C96.1581 290.745 94.9455 290.928 94.0405 290.35L0.990832 230.834C0.0858793 230.256 -0.246678 229.095 0.191958 228.122L68.6055 79.7632C69.0828 78.702 70.3197 78.2398 71.3858 78.7051L104.931 93.3262C105.61 93.6385 106.405 93.546 107.009 93.123L162.6 54.1979Z" fill="#30DC86"/>
</svg>
