<svg 
  className="w-[105px] h-[210px]" viewBox="0 0 105 210" fill="none" xmlns="http://www.w3.org/2000/svg">
<path d="M79.2991 26.4319C79.5937 26.2256 79.7622 25.8811 79.7389 25.5133L78.6337 7.70129C78.5983 7.13513 79.0164 6.64538 79.5823 6.60366L158.988 0.00390165C159.503 -0.0413283 159.984 0.311289 160.098 0.82244L171.861 53.3769C171.979 53.8946 171.682 54.4178 171.186 54.5877L98.1021 79.6215C97.1834 79.9398 96.3716 80.5082 95.7517 81.2673L47.2313 141.382C46.8956 141.794 46.3043 141.883 45.8629 141.601L0.483222 112.576C0.0418827 112.294 -0.120303 111.728 0.0936165 111.253L33.4584 38.9C33.6912 38.3824 34.2944 38.157 34.8143 38.3839L51.1741 45.5145C51.5052 45.6669 51.8932 45.6217 52.1878 45.4154L79.2991 26.4319Z" fill="#30DC86"/>
<path d="M95.5677 209.708C116.553 209.708 133.568 192.246 133.568 170.708C133.568 149.17 116.553 131.708 95.5677 131.708C74.5823 131.708 57.5677 149.17 57.5677 170.708C57.5677 192.246 74.5823 209.708 95.5677 209.708Z" fill="#A568FF"/>
</svg>
