<svg width="299" height="297" viewBox="0 0 299 297" fill="none" xmlns="http://www.w3.org/2000/svg">
<path d="M109.393 46.1413C109.997 45.7812 110.342 45.1797 110.294 44.5377L108.031 13.4439C107.958 12.4556 108.814 11.6006 109.974 11.5278L272.586 0.00681097C273.64 -0.0721453 274.625 0.543407 274.859 1.43571L298.947 93.1781C299.19 94.082 298.581 94.9953 297.566 95.2918L147.899 138.992C146.018 139.548 144.355 140.54 143.086 141.865L43.7232 246.806C43.0357 247.525 41.8246 247.681 40.9208 247.189L-52.0104 196.52C-52.9142 196.028 -53.2464 195.04 -52.8083 194.211L15.5182 67.9063C15.9949 67.0028 17.2302 66.6094 18.2949 67.0055L51.7975 79.4532C52.4755 79.719 53.27 79.6403 53.8733 79.2802L109.393 46.1413Z" fill="#30DC86"/>
<path d="M142.71 366.08C185.685 366.08 220.529 335.597 220.529 297.999C220.529 260.402 185.685 229.918 142.71 229.918C99.7347 229.918 64.8911 260.402 64.8911 297.999C64.8911 335.597 99.7347 366.08 142.71 366.08Z" fill="#A568FF"/>
</svg>
