<svg width="209" height="196" viewBox="0 0 209 196" fill="none" xmlns="http://www.w3.org/2000/svg">
<path d="M73 147.383C113.314 147.383 146 114.388 146 73.6916C146 32.9958 113.314 0 73 0C32.686 0 0 32.9958 0 73.6916C0 114.388 32.686 147.383 73 147.383Z" fill="#A568FF"/>
<path d="M62 124.499C62 124.499 88.901 168.584 90.4583 171.129C90.5057 171.208 90.5769 171.255 90.6638 171.279L176.371 195.522C176.497 195.562 176.64 195.49 176.687 195.372L208.584 119.268C208.624 119.181 208.584 119.078 208.505 119.031L102.948 58.0351C102.822 57.964 102.664 58.0035 102.585 58.1299L62 124.507V124.499Z" fill="#30DC86"/>
</svg>
